<!-- This is a placeholder SVG icon that can be converted to PNG -->
<svg width="192" height="192" viewBox="0 0 192 192" xmlns="http://www.w3.org/2000/svg">
  <defs>
    <linearGradient id="gameGradient" x1="0%" y1="0%" x2="100%" y2="100%">
      <stop offset="0%" style="stop-color:#6c5ce7;stop-opacity:1" />
      <stop offset="100%" style="stop-color:#fd79a8;stop-opacity:1" />
    </linearGradient>
  </defs>
  
  <!-- Background circle -->
  <circle cx="96" cy="96" r="88" fill="url(#gameGradient)" stroke="#ffffff" stroke-width="8"/>
  
  <!-- Gaming controller icon -->
  <g fill="#ffffff" transform="translate(48, 64)">
    <!-- Controller body -->
    <path d="M0 32 C0 16 16 0 32 0 L64 0 C80 0 96 16 96 32 L96 48 C96 64 80 80 64 80 L32 80 C16 80 0 64 0 48 Z"/>
    
    <!-- D-pad -->
    <rect x="16" y="20" width="4" height="16" fill="#6c5ce7"/>
    <rect x="12" y="24" width="12" height="4" fill="#6c5ce7"/>
    
    <!-- Action buttons -->
    <circle cx="72" cy="24" r="6" fill="#fd79a8"/>
    <circle cx="72" cy="40" r="6" fill="#00cec9"/>
    
    <!-- Analog sticks -->
    <circle cx="32" cy="56" r="8" fill="#ffffff" stroke="#6c5ce7" stroke-width="2"/>
    <circle cx="64" cy="56" r="8" fill="#ffffff" stroke="#6c5ce7" stroke-width="2"/>
  </g>
  
  <!-- Text "GCK" -->
  <text x="96" y="145" font-family="Arial, sans-serif" font-size="24" font-weight="bold" text-anchor="middle" fill="#ffffff">GCK</text>
</svg>